<svg width="20" height="20" viewBox="0 0 20 20" fill="none" xmlns="http://www.w3.org/2000/svg">
<g clip-path="url(#clip0_4_795)">
<path d="M16.9297 11.9219C15.7026 12.266 14.406 12.2772 13.1731 11.9545C11.9402 11.6318 10.8155 10.9868 9.91432 10.0856C9.01317 9.1845 8.36813 8.05973 8.04543 6.82684C7.72273 5.59396 7.734 4.2974 8.0781 3.07031C6.8683 3.40704 5.76785 4.05486 4.88633 4.94924C4.00482 5.84363 3.37303 6.95336 3.05387 8.16791C2.73472 9.38246 2.73934 10.6594 3.06729 11.8716C3.39524 13.0838 4.03507 14.189 4.92304 15.0769C5.81101 15.9649 6.91614 16.6047 8.12834 16.9327C9.34054 17.2606 10.6175 17.2653 11.8321 16.9461C13.0466 16.6269 14.1563 15.9951 15.0507 15.1136C15.9451 14.2321 16.5929 13.1317 16.9297 11.9219Z" stroke="#D1D5DB" stroke-width="2" stroke-linecap="round" stroke-linejoin="round"/>
</g>
<defs>
<clipPath id="clip0_4_795">
<rect width="20" height="20" fill="white"/>
</clipPath>
</defs>
</svg>
